<svg height="496pt" viewBox="0 0 496 496" width="496pt" xmlns="http://www.w3.org/2000/svg"><path d="m248 340.6875-47.03125 47.03125c-5.785156 5.785156-8.96875 13.472656-8.96875 21.65625 0 16.882812 13.742188 30.625 30.625 30.625 6.304688 0 12.296875-1.9375 17.375-5.449219v29.449219h16v-29.449219c5.070312 3.511719 11.070312 5.449219 17.375 5.449219 16.882812 0 30.625-13.742188 30.625-30.625 0-8.175781-3.183594-15.871094-8.96875-21.65625zm25.375 83.3125c-3.847656 0-7.621094-1.558594-10.34375-4.28125l-15.03125-15.03125-15.03125 15.03125c-2.722656 2.722656-6.488281 4.28125-10.34375 4.28125-8.066406 0-14.625-6.558594-14.625-14.625 0-3.847656 1.558594-7.621094 4.28125-10.34375l35.71875-35.71875 35.71875 35.71875c2.722656 2.722656 4.28125 6.488281 4.28125 10.34375 0 8.066406-6.558594 14.625-14.625 14.625zm0 0"/><path d="m144 328h40.710938c-20.007813 17.609375-32.710938 43.320312-32.710938 72 0 52.9375 43.0625 96 96 96s96-43.0625 96-96c0-28.679688-12.703125-54.390625-32.710938-72h40.710938v-64h-208zm104-24c-8.304688 0-16.3125 1.167969-24 3.160156v-27.160156h48v27.160156c-7.6875-1.992187-15.695312-3.160156-24-3.160156zm80 96c0 44.113281-35.886719 80-80 80s-80-35.886719-80-80 35.886719-80 80-80 80 35.886719 80 80zm8-88h-48v-32h48zm-176-32h48v32h-48zm0 0"/><path d="m456 184h-96v64h72v56c0 35.289062-28.710938 64-64 64h-8v64h8c70.574219 0 128-57.425781 128-128v-80c0-22.054688-17.945312-40-40-40zm-80 48v-32h80c13.230469 0 24 10.769531 24 24v24h-32c0-8.824219-7.175781-16-16-16zm72 64v-32h32v32zm-72 119.71875v-32.117188c37.734375-3.761718 67.824219-33.867187 71.585938-71.601562h32.023437c-3.9375 55.375-48.226563 99.792969-103.609375 103.71875zm0 0"/><path d="m0 224v80c0 70.574219 57.425781 128 128 128h8v-64h-8c-35.289062 0-64-28.710938-64-64v-56h72v-64h-96c-22.054688 0-40 17.945312-40 40zm48 72h-32v-32h32zm72 87.601562v32.117188c-55.382812-3.925781-99.671875-48.34375-103.617188-103.71875h32.023438c3.769531 37.734375 33.859375 67.839844 71.59375 71.601562zm0-151.601562h-56c-8.824219 0-16 7.175781-16 16h-32v-24c0-13.230469 10.769531-24 24-24h80zm0 0"/><path d="m344 214.175781c0-16.574219-10.433594-31.632812-25.953125-37.464843l-38.046875-14.253907v-6.777343c6.054688-5.433594 10.71875-12.359376 13.398438-20.222657 15.074218-2.585937 26.601562-15.65625 26.601562-31.457031v-32c0-39.703125-32.296875-72-72-72s-72 32.296875-72 72v32c0 15.800781 11.527344 28.871094 26.601562 31.457031 2.679688 7.855469 7.34375 14.78125 13.398438 20.222657v6.777343l-38.046875 14.261719c-15.519531 5.824219-25.953125 20.882812-25.953125 37.457031v33.824219h192zm-57.3125-16.824219-24.933594 20.777344 14.933594-39.824218 4.175781 1.566406zm-71.542969-17.480468 4.175781-1.566406 14.9375 39.824218-24.9375-20.777344zm32.855469-27.871094c-17.648438 0-32-14.351562-32-32v-32.558594c11.617188-1.265625 22.792969-5.601562 32-12.785156 9.207031 7.183594 20.382812 11.519531 32 12.785156v32.558594c0 17.648438-14.351562 32-32 32zm48-34.222656v-27.546875c4.761719 2.777343 8 7.882812 8 13.777343 0 5.894532-3.238281 10.992188-8 13.769532zm-48-101.777344c30.871094 0 56 25.128906 56 56v4.449219c-4.726562-2.753907-10.144531-4.449219-16-4.449219h-1.375c-12.273438 0-24.289062-4.976562-32.96875-13.65625l-5.65625-5.65625-5.65625 5.65625c-8.679688 8.679688-20.695312 13.65625-32.96875 13.65625h-1.375c-5.855469 0-11.273438 1.695312-16 4.449219v-4.449219c0-30.871094 25.128906-56 56-56zm-56 88c0-5.894531 3.238281-11 8-13.777344v27.546875c-4.761719-2.769531-8-7.875-8-13.769531zm56 64c5.617188 0 10.984375-1.023438 16-2.800781v1.34375l-16 42.664062-16-42.664062v-1.34375c5.015625 1.777343 10.382812 2.800781 16 2.800781zm-80 46.175781c0-9.953125 6.257812-18.984375 15.574219-22.480469l12.296875-4.605468-5.183594 15.550781 35.214844 29.359375h-57.902344zm160 17.824219h-57.902344l35.214844-29.351562-5.183594-15.550782 12.296875 4.605469c9.316407 3.488281 15.574219 12.519531 15.574219 22.472656zm0 0"/></svg>