<svg id="Layer_1" enable-background="new 0 0 512.006 512.006" height="512" viewBox="0 0 512.006 512.006" width="512" xmlns="http://www.w3.org/2000/svg"><path d="m137.329 209.939c9.16 29.506 32.217 58.661 47.181 66.373 1.273.656 2.673 1.031 4.104 1.1.469.022.948.033 1.444.033 17.285-.001 50.548-13.536 72.602-33.924 14.138-13.07 21.842-27.493 22.278-41.709.51-16.568-8.902-32.941-23.421-40.742-13.405-7.201-29.226-7.004-42.32.53-.604.346-1.29.454-1.791.324-.591-.161-1.128-.598-1.477-1.198 0 0 0 0 0-.001-7.576-13.073-21.179-21.155-36.386-21.62-16.504-.502-32.813 8.971-40.654 23.574-6.73 12.529-7.269 28.872-1.56 47.26zm19.18-37.798c4.168-7.76 13.046-13.055 21.771-13.055.218 0 .436.003.653.01 8.245.251 15.606 4.609 19.691 11.656 3.008 5.192 7.808 8.909 13.604 10.49 5.723 1.504 11.738.686 16.939-2.305 7.059-4.061 15.614-4.155 22.882-.249 7.871 4.229 13.175 13.485 12.897 22.51-.34 11.035-8.814 21.12-15.865 27.638-18.705 17.292-45.938 27.598-57.301 28.542-9.369-6.501-27.801-29.042-35.353-53.369-2.845-9.17-5.142-22.142.082-31.868z"/><path d="m152.965 64.509c3.968 0 7.724-2.379 9.288-6.289l.003-.007c2.051-5.128-.445-10.944-5.572-12.995-5.133-2.052-10.95.447-13.001 5.575s.443 10.947 5.571 12.999c1.217.487 2.474.717 3.711.717z"/><path d="m256.791 361.838c-5.36-1.34-10.789 1.921-12.128 7.28-1.34 5.358 1.918 10.787 7.275 12.126.814.204 1.631.301 2.434.301 4.48 0 8.558-3.034 9.693-7.577l.002-.008c1.34-5.358-1.919-10.783-7.276-12.122z"/><path d="m456.007 132.006h-85.693l9.994-37.298c2.068-7.719.997-15.799-3.018-22.753-4.015-6.953-10.476-11.921-18.195-13.99l-212.504-56.94c-15.975-4.28-32.46 5.234-36.742 21.212l-5.657 21.113c-1.43 5.335 1.736 10.818 7.071 12.248 5.338 1.432 10.817-1.737 12.247-7.071l5.657-21.112c1.429-5.327 6.925-8.494 12.248-7.071l212.503 56.94c2.56.686 4.708 2.345 6.052 4.671 1.343 2.327 1.705 5.017 1.02 7.576l-82.821 309.096c-1.428 5.327-6.923 8.5-12.248 7.072l-212.504-56.94c-5.326-1.427-8.498-6.921-7.071-12.247l53.872-201.051c1.43-5.335-1.736-10.818-7.071-12.248-5.337-1.429-10.817 1.737-12.247 7.071l-53.874 201.051c-4.281 15.979 5.235 32.46 21.214 36.742l157.766 42.273v71.656c0 16.542 13.458 30 30 30h220.001c16.542 0 29.999-13.458 29.999-30v-320c0-16.542-13.457-30-29.999-30zm-110.047 208.215c-5.915.027-11.514 2.375-15.764 6.611-5.096 5.08-12.121 7.463-19.226 6.649l22.944-85.629c5.116-3.371 9.271-5.442 12.1-6.461 10.737 3.86 34.365 20.861 47.953 42.397 5.123 8.121 10.698 20.056 8.17 30.803-2.066 8.788-9.585 16.355-18.283 18.404-8.035 1.893-16.27-.413-22.038-6.163-4.25-4.236-9.848-6.585-15.856-6.611zm120.046 141.785c0 5.514-4.485 10-9.999 10h-220.001c-5.514 0-10-4.486-10-10v-66.297l34.738 9.308c2.591.694 5.193 1.026 7.757 1.026 13.244 0 25.397-8.852 28.985-22.239l8.277-30.892c2.668.49 5.341.74 7.992.74 7.871 0 15.538-2.129 22.25-6.167v15.539h-2.396c-5.522 0-10 4.477-10 10s4.478 10 10 10h24.791c5.522 0 10-4.477 10-10s-4.478-10-10-10h-2.396v-15.552c9.592 5.774 21.131 7.654 32.433 4.99 16.044-3.778 29.373-17.158 33.168-33.292 3.258-13.845-.451-29.771-10.724-46.054-16.485-26.13-46.303-48.324-62.753-51.901-1.398-.304-2.849-.304-4.249 0-1.003.218-2.022.497-3.049.821l24.123-90.03h91.052c5.514 0 9.999 4.486 9.999 10v320z"/><path d="m436.004 452.001c-5.522 0-10 4.48-10 10.003s4.478 10 10 10 10-4.477 10-10v-.007c0-5.523-4.478-9.996-10-9.996z"/><path d="m99.457 99.024c.918.262 1.843.387 2.752.387 4.352 0 8.355-2.863 9.61-7.255l.002-.007c1.518-5.31-1.559-10.842-6.869-12.359-5.305-1.516-10.846 1.561-12.363 6.872-1.518 5.31 1.557 10.845 6.868 12.362z"/></svg>